<svg xmlns="http://www.w3.org/2000/svg" version="1.1" viewBox="-5.0 -10.0 110.0 135.0">
 <path d="m13.844 49.781c1.8828 1.8828 4.9531 1.8828 6.8359 0l1.7148-1.7109 2.0234 2.2852c0.66797 0.72656 1.5781 1.1367 2.5625 1.1562h0.078125c0.95703 0 1.8555-0.37109 2.5352-1.0508l2.6406-2.6406c0.69531-0.69531 1.0703-1.625 1.0508-2.6094-0.019531-0.98438-0.42969-1.8984-1.1719-2.5781l-2.2695-2.0117 1.7109-1.7109c0.91406-0.91406 1.4141-2.1289 1.4141-3.418 0-1.2891-0.50391-2.5039-1.4141-3.418-4.6641-4.6641-12.164-5.0781-17.082-0.95312-2.7344 2.2969-4.3281 5.5195-4.4805 9.0664-0.15234 3.5 1.1797 6.9258 3.6562 9.3984zm1.918-17.129c4.125-3.4688 10.445-3.1016 14.379 0.83594 0.53516 0.53516 0.82812 1.2461 0.82812 2.0039 0 0.75781-0.29688 1.4688-0.82812 2.0039l-2.4648 2.4648c-0.19531 0.19531-0.30078 0.46094-0.29297 0.73828 0.007813 0.27344 0.13281 0.53516 0.33594 0.71875l3.0508 2.6992c0.32031 0.29687 0.50391 0.69922 0.51172 1.1367s-0.15625 0.84375-0.46484 1.1562l-2.6406 2.6406c-0.30859 0.30859-0.73047 0.46484-1.1562 0.46484-0.4375-0.007813-0.83594-0.19141-1.1211-0.49609l-2.7109-3.0664c-0.18359-0.20703-0.44531-0.32812-0.71875-0.33594h-0.03125c-0.26562 0-0.51953 0.10547-0.70703 0.29297l-2.4648 2.4648c-1.1055 1.1055-2.9023 1.1055-4.0078 0l-0.19531-0.19531c-2.0781-2.0781-3.1992-4.9609-3.0703-7.8984 0.12891-2.9883 1.4688-5.6953 3.7695-7.6289z"/>
 <path d="m17.914 17.879c0 3.6211 2.9453 6.5703 6.5703 6.5703 3.6211-0.003907 6.5664-2.9492 6.5664-6.5703s-2.9453-6.5703-6.5703-6.5703c-3.6211 0-6.5664 2.9492-6.5664 6.5703zm11.137 0c0 2.5195-2.0508 4.5703-4.5703 4.5703s-4.5703-2.0508-4.5703-4.5703c0-2.5195 2.0508-4.5703 4.5703-4.5703s4.5703 2.0508 4.5703 4.5703z"/>
 <path d="m68.93 17.879c0 3.6211 2.9453 6.5703 6.5703 6.5703 3.6172-0.003907 6.5664-2.9492 6.5664-6.5703s-2.9453-6.5703-6.5703-6.5703c-3.6211 0-6.5664 2.9492-6.5664 6.5703zm11.137 0c0 2.5195-2.0508 4.5703-4.5703 4.5703-2.5195 0-4.5703-2.0508-4.5703-4.5703 0-2.5195 2.0508-4.5703 4.5703-4.5703 2.5195 0 4.5703 2.0508 4.5703 4.5703z"/>
 <path d="m52.5 38.941c-3.6211 0-6.5703 2.9453-6.5703 6.5703 0 3.6211 2.9453 6.5703 6.5703 6.5703 3.6211 0 6.5703-2.9453 6.5703-6.5703s-2.9453-6.5703-6.5703-6.5703zm0 11.137c-2.5195 0-4.5703-2.0508-4.5703-4.5703 0-2.5195 2.0508-4.5703 4.5703-4.5703s4.5703 2.0508 4.5703 4.5703c0 2.5234-2.0508 4.5703-4.5703 4.5703z"/>
 <path d="m59.797 27.727c0.24609-0.11328 0.43359-0.32031 0.52344-0.57422 1.3086-3.7109 0.75-7.8828-1.5273-11.441-0.16406-0.25391-0.33594-0.48828-0.51953-0.71484 0.83594-0.69141 1.8594-1.9219 2.0469-3.9023 0.054688-0.55078-0.35156-1.0391-0.90234-1.0898-0.55469-0.070312-1.0391 0.35156-1.0898 0.90234-0.13281 1.418-0.91016 2.2344-1.4492 2.6445-0.55078-0.47266-0.96484-0.74609-0.98047-0.75391-3.3047-2.3672-7.5938-2.957-11.477-1.5742-0.26172 0.09375-0.47656 0.29297-0.58594 0.54688-0.10938 0.25781-0.10938 0.54688 0.007812 0.80078 0.003906 0.007813 0.011719 0.027344 0.019531 0.042969-1.6133 0.72656-3.0625 1.7969-4.2148 3.1797-3.6172 4.332-3.5625 10.758 0.12891 14.945 2.0977 2.3828 5.0039 3.75 8.1836 3.8516 0.12109 0.003906 0.24219 0.007812 0.36328 0.007812 3.0664 0 6.0547-1.2344 8.2422-3.4219 1.0117-1.0117 1.7969-2.1758 2.375-3.4531 0.03125 0.011719 0.070313 0.027344 0.078125 0.03125 0.11719 0.042969 0.23438 0.066406 0.35547 0.066406 0.14453 0 0.28906-0.03125 0.42188-0.09375zm-5.0234-13.273c0.015624 0.007813 1.4414 0.94141 2.332 2.3359 1.7188 2.6875 2.2969 5.7578 1.6445 8.5977-1.0625-0.63672-2.7891-1.9766-3.3945-4.1797-0.085938-0.3125-0.31641-0.5625-0.62109-0.67578-0.11328-0.039062-0.22656-0.0625-0.34375-0.0625-0.19922 0-0.39844 0.058594-0.56641 0.17578-1.1797 0.8125-2.8906 1.7266-4.7383 1.832 0.10937-1.8867 1.0547-3.6289 1.8945-4.8281 0.1875-0.26953 0.23438-0.61719 0.11719-0.92578-0.11719-0.30859-0.375-0.53906-0.69531-0.62109-2.0312-0.5-3.4336-2.2148-4.1562-3.3359 2.9414-0.6875 6.043-0.09375 8.5273 1.6875zm0.37891 15.309c-1.8828 1.8828-4.4492 2.9375-7.125 2.832-2.6211-0.082031-5.0156-1.2109-6.7461-3.1758-3.043-3.4531-3.082-8.7578-0.09375-12.344 1.0078-1.2109 2.2891-2.1328 3.7109-2.7305 0.78906 1.1055 2.0273 2.4609 3.7422 3.25-0.92969 1.5977-1.7422 3.6953-1.5312 5.9531 0.046875 0.48047 0.42578 0.85938 0.90625 0.90625 2.2188 0.19922 4.2891-0.58203 5.8672-1.4844 0.83594 1.8203 2.2148 3.0391 3.3047 3.7812-0.48438 1.1172-1.1602 2.1328-2.0352 3.0117z"/>
 <path d="m67.176 44.621c0.13281 0.0625 0.27734 0.09375 0.42188 0.09375 0.12109 0 0.24219-0.023438 0.35547-0.0625 0.007813-0.003906 0.042969-0.019532 0.078125-0.03125 0.57812 1.2773 1.3633 2.4414 2.375 3.4531 2.1875 2.1875 5.1719 3.4219 8.2422 3.4219 0.12109 0 0.24219 0 0.35937-0.007813 3.1797-0.10156 6.0859-1.4688 8.1836-3.8516 3.6875-4.1875 3.7422-10.613 0.12891-14.945-1.1523-1.3828-2.6055-2.4531-4.2148-3.1797 0.007812-0.015625 0.015625-0.039063 0.019531-0.042969 0.11328-0.25391 0.11719-0.54688 0.007812-0.80078-0.10937-0.25781-0.32031-0.45312-0.58594-0.54688-3.8828-1.3789-8.168-0.78906-11.434 1.5469-0.035156 0.023437-0.46484 0.30469-1.0234 0.78516-0.53516-0.40625-1.3125-1.2266-1.4453-2.6484-0.050781-0.55078-0.53516-0.95313-1.0898-0.90234-0.55078 0.050781-0.95313 0.53906-0.90234 1.0898 0.1875 1.9805 1.2109 3.2109 2.0469 3.9023-0.17969 0.22656-0.35547 0.46094-0.51562 0.71484-2.2773 3.5625-2.832 7.7344-1.5234 11.441 0.082032 0.25 0.26953 0.45703 0.51562 0.57031zm18.609-10.648c2.9883 3.582 2.9492 8.8867-0.09375 12.34-1.7305 1.9648-4.125 3.0938-6.75 3.1758-2.6445 0.082031-5.2383-0.94922-7.125-2.832-0.875-0.875-1.5508-1.8906-2.0352-3.0117 1.0898-0.74219 2.4688-1.9609 3.3047-3.7812 1.5781 0.90234 3.6445 1.6797 5.8672 1.4844 0.48047-0.042968 0.85938-0.42578 0.90625-0.90625 0.20703-2.2578-0.60547-4.3555-1.5352-5.9531 1.7148-0.78906 2.9531-2.1445 3.7422-3.25 1.4297 0.60156 2.7109 1.5234 3.7188 2.7344zm-15.922-0.28906c0.89062-1.3906 2.3203-2.3281 2.375-2.3633 2.4492-1.7539 5.5508-2.3438 8.4883-1.6562-0.72656 1.1211-2.125 2.8359-4.1562 3.3359-0.32031 0.078125-0.58203 0.3125-0.69531 0.61719-0.11719 0.30859-0.070312 0.65625 0.11719 0.92578 0.83984 1.1992 1.7891 2.9453 1.8984 4.8281-1.8477-0.10547-3.5625-1.0234-4.7383-1.832-0.26562-0.18359-0.60547-0.22656-0.91016-0.11719-0.30469 0.10938-0.53516 0.36328-0.62109 0.67578-0.60156 2.207-2.332 3.543-3.3945 4.1797-0.65625-2.832-0.078124-5.9102 1.6367-8.5938z"/>
 <path d="m10.988 90h78.012c0.55469 0 1-0.44531 1-1v-33.285c0-0.55469-0.44531-1-1-1h-78.012c-0.55469 0-1 0.44531-1 1v33.285c0 0.55469 0.44922 1 1 1zm77.012-33.285v8.8984l-21.414-0.003906c-0.55469 0-1 0.44531-1 1s0.44531 1 1 1h21.414v9.1953h-21.414c-0.55469 0-1 0.44531-1 1 0 0.55469 0.44531 1 1 1h21.414v9.1953h-76.012v-9.1953h21.426c0.55469 0 1-0.44531 1-1 0-0.55469-0.44531-1-1-1h-21.426v-9.1953h21.426c0.55469 0 1-0.44531 1-1s-0.44531-1-1-1l-21.426 0.003906v-8.8984z"/>
 <path d="m42.402 67.609h15.195c0.55469 0 1-0.44531 1-1s-0.44531-1-1-1h-15.195c-0.55469 0-1 0.44531-1 1s0.44922 1 1 1z"/>
 <path d="m42.402 78.805h15.195c0.55469 0 1-0.44531 1-1 0-0.55469-0.44531-1-1-1h-15.195c-0.55469 0-1 0.44531-1 1 0 0.55469 0.44922 1 1 1z"/>
</svg>